# xmcd
# Copyright (C) 1995-1998 Ti Kan
#
# Track frame offsets:
#       150
#       15195
#       27683
#       46585
#       64178
#       78190
#       96625
#       110200
#       129680
#
# Disc length: 1896 seconds
#
# Revision: 0
# Processed by: cddbd v1.5.2PL0 Copyright (c) Steve Scherf et al.
# Submitted via: CD-Import v1.0
#
DISCID=74076609
DTITLE=John Cale - Paris 1919
DYEAR=1973
DGENRE=
TTITLE0=Child's Christmas In Wales
TTITLE1=Hanky Panky Nohow
TTITLE2=The Endless Plain Of Fortune
TTITLE3=Andalucia
TTITLE4=Macbeth
TTITLE5=Paris 1919
TTITLE6=Graham Greene
TTITLE7=Half Past France
TTITLE8=Atarctica Starts Here
EXTD=
EXTT0=
EXTT1=
EXTT2=
EXTT3=
EXTT4=
EXTT5=
EXTT6=
EXTT7=
EXTT8=
PLAYORDER=
